curl
version=1
nRows=440
nColumns=3
inDegrees=yes
endheader
time	r_shoulder_elev	r_elbow_flex
4.3900	27.511113	23.538080
4.4000	27.155371	22.363279
4.4100	26.802566	21.242180
4.4200	26.453341	20.175549
4.4300	26.108362	19.163819
4.4400	25.768304	18.207098
4.4500	25.433842	17.305184
4.4600	25.105647	16.457574
4.4700	24.784370	15.663483
4.4800	24.470641	14.921864
4.4900	24.165057	14.231428
4.5000	23.868181	13.590667
4.5100	23.580531	12.997880
4.5200	23.302583	12.451195
4.5300	23.034763	11.948600
4.5400	22.777446	11.487961
4.5500	22.530956	11.067055
4.5600	22.295566	10.683591
4.5700	22.071498	10.335238
4.5800	21.858925	10.019644
4.5900	21.657972	9.734463
4.6000	21.468721	9.477372
4.6100	21.291210	9.246094
4.6200	21.125441	9.038414
4.6300	20.971381	8.852196
4.6400	20.828963	8.685394
4.6500	20.698096	8.536071
4.6600	20.578662	8.402404
4.6700	20.470523	8.282700
4.6800	20.373523	8.175398
4.6900	20.287489	8.079081
4.7000	20.212236	7.992481
4.7100	20.147569	7.914484
4.7200	20.093283	7.844134
4.7300	20.049167	7.780637
4.7400	20.015003	7.723363
4.7500	19.990570	7.671849
4.7600	19.975643	7.625796
4.7700	19.969994	7.585076
4.7800	19.973392	7.549726
4.7900	19.985603	7.519951
4.8000	20.006393	7.496120
4.8100	20.035522	7.478769
4.8200	20.072746	7.468596
4.8300	20.117818	7.466461
4.8400	20.170483	7.473389
4.8500	20.230481	7.490559
4.8600	20.297540	7.519314
4.8700	20.371382	7.561151
4.8800	20.451714	7.617725
4.8900	20.538232	7.690842
4.9000	20.630618	7.782462
4.9100	20.728536	7.894691
4.9200	20.831638	8.029783
4.9300	20.939554	8.190125
4.9400	21.051900	8.378242
4.9500	21.168272	8.596779
4.9600	21.288250	8.848495
4.9700	21.411398	9.136250
4.9800	21.537263	9.462987
4.9900	21.665380	9.831720
5.0000	21.795273	10.245507
5.0100	21.926456	10.707430
5.0200	22.058440	11.220570
5.0300	22.190735	11.787977
5.0400	22.322854	12.412640
5.0500	22.454321	13.097452
5.0600	22.584671	13.845181
5.0700	22.713461	14.658426
5.0800	22.840275	15.539585
5.0900	22.964730	16.490817
5.1000	23.086482	17.513999
5.1100	23.205235	18.610691
5.1200	23.320746	19.782094
5.1300	23.432835	21.029020
5.1400	23.541387	22.351848
5.1500	23.646362	23.750501
5.1600	23.747799	25.224414
5.1700	23.845820	26.772509
5.1800	23.940639	28.393180
5.1900	24.032560	30.084277
5.2000	24.121984	31.843102
5.2100	24.209408	33.666409
5.2200	24.295427	35.550409
5.2300	24.380733	37.490787
5.2400	24.466111	39.482722
5.2500	24.552436	41.520919
5.2600	24.640669	43.599646
5.2700	24.731848	45.712777
5.2800	24.827079	47.853843
5.2900	24.927528	50.016092
5.3000	25.034411	52.192549
5.3100	25.148974	54.376084
5.3200	25.272491	56.559484
5.3300	25.406239	58.735526
5.3400	25.551488	60.897051
5.3500	25.709483	63.037044
5.3600	25.881429	65.148702
5.3700	26.068472	67.225512
5.3800	26.271684	69.261320
5.3900	26.492044	71.250393
5.4000	26.730422	73.187485
5.4100	26.987564	75.067888
5.4200	27.264074	76.887488
5.4300	27.560398	78.642808
5.4400	27.876815	80.331050
5.4500	28.213420	81.950128
5.4600	28.570115	83.498700
5.4700	28.946600	84.976187
5.4800	29.342365	86.382795
5.4900	29.756686	87.719521
5.5000	30.188626	88.988157
5.5100	30.637030	90.191285
5.5200	31.100533	91.332263
5.5300	31.577564	92.415203
5.5400	32.066360	93.444936
5.5500	32.564974	94.426973
5.5600	33.071296	95.367447
5.5700	33.583070	96.273056
5.5800	34.097917	97.150983
5.5900	34.613360	98.008812
5.6000	35.126852	98.854439
5.6100	35.635808	99.695960
5.6200	36.137630	100.541569
5.6300	36.629746	101.399434
5.6400	37.109638	102.277574
5.6500	37.574878	103.183739
5.6600	38.023159	104.125275
5.6700	38.452327	105.109007
5.6800	38.860414	106.141111
5.6900	39.245662	107.227005
5.7000	39.606556	108.371239
5.7100	39.941844	109.577404
5.7200	40.250557	110.848050
5.7300	40.532029	112.184625
5.7400	40.785906	113.587429
5.7500	41.012158	115.055587
5.7600	41.211077	116.587049
5.7700	41.383275	118.178605
5.7800	41.529681	119.825928
5.7900	41.651518	121.523634
5.8000	41.750293	123.265368
5.8100	41.827768	125.043904
5.8200	41.885934	126.851262
5.8300	41.926979	128.000000
5.8400	41.953253	128.000000
5.8500	41.967229	128.000000
5.8600	41.971465	128.000000
5.8700	41.968565	128.000000
5.8800	41.961132	128.000000
5.8900	41.951733	128.000000
5.9000	41.942856	128.000000
5.9100	41.936873	128.000000
5.9200	41.936006	128.000000
5.9300	41.942290	128.000000
5.9400	41.957550	128.000000
5.9500	41.983372	128.000000
5.9600	42.021087	128.000000
5.9700	42.071752	128.000000
5.9800	42.136143	128.000000
5.9900	42.214750	128.000000
6.0000	42.307776	128.000000
6.0100	42.415143	128.000000
6.0200	42.536504	128.000000
6.0300	42.671255	128.000000
6.0400	42.818557	128.000000
6.0500	42.977354	128.000000
6.0600	43.146404	128.000000
6.0700	43.324301	128.000000
6.0800	43.509510	128.000000
6.0900	43.700394	128.000000
6.1000	43.895245	128.000000
6.1100	44.092317	128.000000
6.1200	44.289854	128.000000
6.1300	44.486117	128.000000
6.1400	44.679416	128.000000
6.1500	44.868125	128.000000
6.1600	45.050714	128.000000
6.1700	45.225759	128.000000
6.1800	45.391964	128.000000
6.1900	45.548172	128.000000
6.2000	45.693374	128.000000
6.2100	45.826718	128.000000
6.2200	45.947513	128.000000
6.2300	46.055231	128.000000
6.2400	46.149505	128.000000
6.2500	46.230125	128.000000
6.2600	46.297035	128.000000
6.2700	46.350326	128.000000
6.2800	46.390223	128.000000
6.2900	46.417078	128.000000
6.3000	46.431357	128.000000
6.3100	46.433628	128.000000
6.3200	46.424545	128.000000
6.3300	46.404839	128.000000
6.3400	46.375298	128.000000
6.3500	46.336755	128.000000
6.3600	46.290073	128.000000
6.3700	46.236132	128.000000
6.3800	46.175811	128.000000
6.3900	46.109980	128.000000
6.4000	46.039482	128.000000
6.4100	45.965121	128.000000
6.4200	45.887656	128.000000
6.4300	45.807783	128.000000
6.4400	45.726132	128.000000
6.4500	45.643254	128.000000
6.4600	45.559613	128.000000
6.4700	45.475586	128.000000
6.4800	45.391449	128.000000
6.4900	45.307379	128.000000
6.5000	45.223448	128.000000
6.5100	45.139623	127.641968
6.5200	45.055765	125.990314
6.5300	44.971630	124.288616
6.5400	44.886871	122.539987
6.5500	44.801039	120.747985
6.5600	44.713592	118.916575
6.5700	44.623898	117.050093
6.5800	44.531243	115.153184
6.5900	44.434838	113.230754
6.6000	44.333832	111.287900
6.6100	44.227316	109.329846
6.6200	44.114342	107.361873
6.6300	43.993930	105.389240
6.6400	43.865083	103.417117
6.6500	43.726801	101.450507
6.6600	43.578093	99.494175
6.6700	43.417993	97.552585
6.6800	43.245576	95.629831
6.6900	43.059964	93.729587
6.7000	42.860350	91.855056
6.7100	42.646002	90.008928
6.7200	42.416278	88.193354
6.7300	42.170636	86.409917
6.7400	41.908646	84.659626
6.7500	41.629992	82.942910
6.7600	41.334485	81.259630
6.7700	41.022060	79.609095
6.7800	40.692789	77.990092
6.7900	40.346871	76.400923
6.8000	39.984640	74.839448
6.8100	39.606560	73.303146
6.8200	39.213219	71.789166
6.8300	38.805328	70.294398
6.8400	38.383708	68.815543
6.8500	37.949288	67.349180
6.8600	37.503092	65.891845
6.8700	37.046228	64.440102
6.8800	36.579878	62.990614
6.8900	36.105283	61.540215
6.9000	35.623730	60.085976
6.9100	35.136540	58.625261
6.9200	34.645050	57.155790
6.9300	34.150601	55.675681
6.9400	33.654523	54.183493
6.9500	33.158119	52.678261
6.9600	32.662655	51.159517
6.9700	32.169345	49.627307
6.9800	31.679341	48.082195
6.9900	31.193722	46.525262
7.0000	30.713487	44.958091
7.0100	30.239548	43.382746
7.0200	29.772728	41.801744
7.0300	29.313750	40.218015
7.0400	28.863245	38.634860
7.0500	28.421747	37.055902
7.0600	27.989695	35.485030
7.0700	27.567436	33.926347
7.0800	27.155232	32.384104
7.0900	26.753263	30.862645
7.1000	26.361632	29.366347
7.1100	25.980376	27.899557
7.1200	25.609470	26.466541
7.1300	25.248840	25.071425
7.1400	24.898368	23.718146
7.1500	24.557900	22.410409
7.1600	24.227258	21.151637
7.1700	23.906248	19.944943
7.1800	23.594666	18.793092
7.1900	23.292304	17.698477
7.2000	22.998963	16.663100
7.2100	22.714449	15.688556
7.2200	22.438589	14.776028
7.2300	22.171225	13.926278
7.2400	21.912223	13.139654
7.2500	21.661473	12.416094
7.2600	21.418891	11.755140
7.2700	21.184422	11.155950
7.2800	20.958036	10.617321
7.2900	20.739727	10.137709
7.3000	20.529517	9.715256
7.3100	20.327447	9.347817
7.3200	20.133577	9.032989
7.3300	19.947984	8.768145
7.3400	19.770755	8.550464
7.3500	19.601983	8.376965
7.3600	19.441763	8.244541
7.3700	19.290188	8.149995
7.3800	19.147344	8.090068
7.3900	19.013305	8.061478
7.4000	18.888128	8.060950
7.4100	18.771854	8.085245
7.4200	18.664499	8.131194
7.4300	18.566056	8.195724
7.4400	18.476490	8.275884
7.4500	18.395739	8.368871
7.4600	18.323710	8.472056
7.4700	18.260281	8.582999
7.4800	18.205302	8.699475
7.4900	18.158594	8.819487
7.5000	18.119949	8.941283
7.5100	18.089137	9.063368
7.5200	18.065903	9.184519
7.5300	18.049972	9.303789
7.5400	18.041052	9.420520
7.5500	18.038836	9.534343
7.5600	18.043005	9.645185
7.5700	18.053235	9.753270
7.5800	18.069197	9.859114
7.5900	18.090559	9.963527
7.6000	18.116995	10.067605
7.6100	18.148183	10.172724
7.6200	18.183812	10.280527
7.6300	18.223581	10.392917
7.6400	18.267208	10.512038
7.6500	18.314427	10.640263
7.6600	18.364992	10.780173
7.6700	18.418681	10.934535
7.6800	18.475297	11.106288
7.6900	18.534667	11.298508
7.7000	18.596648	11.514393
7.7100	18.661126	11.757231
7.7200	18.728017	12.030373
7.7300	18.797268	12.337204
7.7400	18.868859	12.681116
7.7500	18.942805	13.065473
7.7600	19.019153	13.493583
7.7700	19.097985	13.968668
7.7800	19.179421	14.493827
7.7900	19.263616	15.072012
7.8000	19.350763	15.705995
7.8100	19.441092	16.398335
7.8200	19.534873	17.151354
7.8300	19.632413	17.967107
7.8400	19.734057	18.847359
7.8500	19.840189	19.793557
7.8600	19.951231	20.806808
7.8700	20.067638	21.887864
7.8800	20.189901	23.037095
7.8900	20.318542	24.254482
7.9000	20.454109	25.539597
7.9100	20.597174	26.891598
7.9200	20.748330	28.309219
7.9300	20.908182	29.790768
7.9400	21.077347	31.334129
7.9500	21.256442	32.936764
7.9600	21.446081	34.595726
7.9700	21.646870	36.307669
7.9800	21.859400	38.068869
7.9900	22.084239	39.875243
8.0000	22.321926	41.722379
8.0100	22.572968	43.605560
8.0200	22.837833	45.519807
8.0300	23.116945	47.459909
8.0400	23.410678	49.420465
8.0500	23.719353	51.395929
8.0600	24.043235	53.380655
8.0700	24.382526	55.368941
8.0800	24.737367	57.355075
8.0900	25.107830	59.333384
8.1000	25.493920	61.298277
8.1100	25.895568	63.244290
8.1200	26.312635	65.166125
8.1300	26.744907	67.058692
8.1400	27.192092	68.917148
8.1500	27.653822	70.736931
8.1600	28.129647	72.513794
8.1700	28.619033	74.243842
8.1800	29.121364	75.923562
8.1900	29.635930	77.549857
8.2000	30.161930	79.120075
8.2100	30.698468	80.632041
8.2200	31.244543	82.084086
8.2300	31.799049	83.475079
8.2400	32.360771	84.804449
8.2500	32.928381	86.072209
8.2600	33.500435	87.278983
8.2700	34.075375	88.426014
8.2800	34.651526	89.515177
8.2900	35.227104	90.548985
8.3000	35.800219	91.530582
8.3100	36.368883	92.463731
8.3200	36.931019	93.352796
8.3300	37.484479	94.202709
8.3400	38.027054	95.018930
8.3500	38.556494	95.807400
8.3600	39.070530	96.574479
8.3700	39.566894	97.326880
8.3800	40.043346	98.071590
8.3900	40.497698	98.815782
8.4000	40.927842	99.566727
8.4100	41.331782	100.331687
8.4200	41.707659	101.117818
8.4300	42.053785	101.932054
8.4400	42.368666	102.781003
8.4500	42.651038	103.670833
8.4600	42.899884	104.607167
8.4700	43.114469	105.594984
8.4800	43.294353	106.638516
8.4900	43.439415	107.741172
8.5000	43.549866	108.905459
8.5100	43.626259	110.132926
8.5200	43.669497	111.424116
8.5300	43.680834	112.778545
8.5400	43.661864	114.194692
8.5500	43.614519	115.670008
8.5600	43.541046	117.200953
8.5700	43.443984	118.783037
8.5800	43.326143	120.410890
8.5900	43.190562	122.078344
8.6000	43.040479	123.778521
8.6100	42.879288	125.503935
8.6200	42.710497	127.246600
8.6300	42.537682	128.000000
8.6400	42.364444	128.000000
8.6500	42.194359	128.000000
8.6600	42.030941	128.000000
8.6700	41.877591	128.000000
8.6800	41.737562	128.000000
8.6900	41.613919	128.000000
8.7000	41.509505	128.000000
8.7100	41.426908	128.000000
8.7200	41.368438	128.000000
8.7300	41.336099	128.000000
8.7400	41.331574	128.000000
8.7500	41.356213	128.000000
8.7600	41.411016	128.000000
8.7700	41.496636	128.000000
8.7800	41.613371	128.000000
